<?xml version="1.0" encoding="UTF-8" standalone="no"?>
<!DOCTYPE svg PUBLIC "-//W3C//DTD SVG 1.1//EN" "http://www.w3.org/Graphics/SVG/1.1/DTD/svg11.dtd">
<!-- Created with Vectornator (http://vectornator.io/) -->
<svg height="100%" stroke-miterlimit="10" style="fill-rule:nonzero;clip-rule:evenodd;stroke-linecap:round;stroke-linejoin:round;" version="1.1" viewBox="0 0 1000 350" width="100%" xml:space="preserve" xmlns="http://www.w3.org/2000/svg" xmlns:vectornator="http://vectornator.io" xmlns:xlink="http://www.w3.org/1999/xlink">
<defs>
<filter color-interpolation-filters="sRGB" filterUnits="userSpaceOnUse" height="279.009" id="Filter" width="1020.55" x="-8.34234" y="32.7511">
<feDropShadow dx="-0" dy="0" flood-color="#ffa000" flood-opacity="1" in="SourceGraphic" result="Shadow" stdDeviation="8.87221"/>
</filter>
<filter color-interpolation-filters="sRGB" filterUnits="userSpaceOnUse" height="138.999" id="Filter_2" width="165.738" x="652.923" y="113.153">
<feDropShadow dx="-2.10077e-05" dy="5.71918" flood-color="#d7cfc1" flood-opacity="1" in="SourceGraphic" result="Shadow" stdDeviation="17.4144"/>
</filter>
</defs>
<clipPath id="ArtboardFrame">
<rect height="350" width="1000" x="0" y="0"/>
</clipPath>
<g clip-path="url(#ArtboardFrame)" id="Layer-1" vectornator:layerName="Layer 1">
<g fill="#fffd00" filter="url(#Filter)" stroke="none" vectornator:layerName="Text 1" vectornator:shadowAngle="1.5708" vectornator:shadowColor="#ffa000" vectornator:shadowOffset="0" vectornator:shadowOpacity="1" vectornator:shadowRadius="17.7444">
<path d="M116.421 289.579C84.5333 289.579 59.4641 279.351 41.2137 258.894C22.9634 238.338 13.8382 210.16 13.8382 174.361C13.8382 135.654 24.2168 105.822 44.9741 84.8642C63.0239 66.6138 85.9873 57.4886 113.864 57.4886C151.167 57.4886 178.442 69.7224 195.69 94.1899C205.216 107.928 210.33 121.716 211.032 135.554L164.705 135.554C161.696 124.925 157.836 116.903 153.123 111.488C144.699 101.861 132.215 97.0478 115.669 97.0478C98.8227 97.0478 85.536 103.842 75.8092 117.429C66.0824 131.017 61.2189 150.245 61.2189 175.113C61.2189 199.982 66.3581 218.608 76.6365 230.992C86.9148 243.377 99.9759 249.569 115.82 249.569C132.064 249.569 144.449 244.254 152.972 233.625C157.685 227.909 161.596 219.335 164.705 207.904L210.581 207.904C206.57 232.07 196.317 251.725 179.821 266.866C163.326 282.008 142.192 289.579 116.421 289.579Z"/>
<path d="M416.65 80.803C439.011 101.159 450.192 131.643 450.192 172.255C450.192 212.065 439.011 242.549 416.65 263.708C399.904 280.955 375.687 289.579 343.999 289.579C312.312 289.579 288.095 280.955 271.349 263.708C248.887 242.549 237.656 212.065 237.656 172.255C237.656 131.643 248.887 101.159 271.349 80.803C288.095 63.5554 312.312 54.9316 343.999 54.9316C375.687 54.9316 399.904 63.5554 416.65 80.803ZM343.999 94.1899C325.649 94.1899 311.008 100.959 300.078 114.496C289.148 128.033 283.683 147.286 283.683 172.255C283.683 197.224 289.148 216.477 300.078 230.015C311.008 243.552 325.649 250.321 343.999 250.321C362.35 250.321 376.915 243.552 387.695 230.015C398.475 216.477 403.864 197.224 403.864 172.255C403.864 147.387 398.475 128.159 387.695 114.571C376.915 100.984 362.35 94.1899 343.999 94.1899Z"/>
<path d="M578.496 289.579C546.608 289.579 521.539 279.351 503.289 258.894C485.038 238.338 475.913 210.16 475.913 174.361C475.913 135.654 486.292 105.822 507.049 84.8642C525.099 66.6138 548.062 57.4886 575.939 57.4886C613.242 57.4886 640.518 69.7224 657.765 94.1899C667.291 107.928 672.406 121.716 673.107 135.554L626.78 135.554C623.771 124.925 619.911 116.903 615.198 111.488C606.774 101.861 594.29 97.0478 577.744 97.0478C560.898 97.0478 547.611 103.842 537.884 117.429C528.157 131.017 523.294 150.245 523.294 175.113C523.294 199.982 528.433 218.608 538.712 230.992C548.99 243.377 562.051 249.569 577.895 249.569C594.14 249.569 606.524 244.254 615.047 233.625C619.76 227.909 623.671 219.335 626.78 207.904L672.656 207.904C668.645 232.07 658.392 251.725 641.896 266.866C625.401 282.008 604.268 289.579 578.496 289.579Z"/>
<path d="M925.504 61.7003L985.369 61.7003L894.518 153.002L990.032 283.412L930.468 283.412L862.029 186.545L839.918 209.257L839.918 283.412L794.342 283.412L794.342 61.7003L839.918 61.7003L839.918 153.002L925.504 61.7003Z"/>
</g>
</g>
<g id="Layer-2" vectornator:layerName="Layer 2">
<g opacity="1" vectornator:layerName="Group 1">
<g fill="#ffffff" filter="url(#Filter_2)" stroke="none" vectornator:layerName="Text 1" vectornator:shadowAngle="1.5708" vectornator:shadowColor="#d7cfc1" vectornator:shadowOffset="5.71918" vectornator:shadowOpacity="1" vectornator:shadowRadius="34.8288">
<path d="M696.459 150.97L707.239 150.97L707.239 202.897L696.459 202.897L696.459 150.97Z"/>
<path d="M716.504 150.97L727.284 150.97L727.284 202.897L716.504 202.897L716.504 150.97Z"/>
<path d="M733.062 150.97L775.125 150.97L775.125 160.165L759.589 160.165L759.589 202.897L748.668 202.897L748.668 160.165L733.062 160.165L733.062 150.97Z"/>
</g>
</g>
</g>
</svg>
